<mxfile host="65bd71144e">
    <diagram id="d8FyscHyQJli3Rln_blA" name="第1頁">
        <mxGraphModel dx="953" dy="638" grid="1" gridSize="10" guides="1" tooltips="1" connect="1" arrows="1" fold="1" page="1" pageScale="1" pageWidth="827" pageHeight="1169" background="none" math="0" shadow="0">
            <root>
                <mxCell id="0"/>
                <mxCell id="1" parent="0"/>
                <mxCell id="13" value="" style="rounded=1;whiteSpace=wrap;html=1;fontSize=24;fillColor=none;strokeColor=default;strokeWidth=5;" parent="1" vertex="1">
                    <mxGeometry x="90" y="180" width="670" height="310" as="geometry"/>
                </mxCell>
                <mxCell id="2" value="&lt;font style=&quot;font-size: 24px&quot; color=&quot;#ff9933&quot;&gt;&lt;b&gt;Sentinel&lt;/b&gt;&lt;/font&gt;" style="rounded=0;whiteSpace=wrap;html=1;fillColor=none;strokeColor=#FF9933;" parent="1" vertex="1">
                    <mxGeometry x="320" y="238" width="200" height="80" as="geometry"/>
                </mxCell>
                <mxCell id="3" value="&lt;font style=&quot;font-size: 24px&quot; color=&quot;#66b2ff&quot;&gt;&lt;b&gt;Node&lt;/b&gt;&lt;/font&gt;" style="rounded=0;whiteSpace=wrap;html=1;fillColor=none;strokeColor=#66B2FF;" parent="1" vertex="1">
                    <mxGeometry x="560" y="238" width="80" height="80" as="geometry"/>
                </mxCell>
                <mxCell id="4" value="&lt;font style=&quot;font-size: 24px&quot; color=&quot;#66b2ff&quot;&gt;&lt;b&gt;Node&lt;/b&gt;&lt;/font&gt;" style="rounded=0;whiteSpace=wrap;html=1;fillColor=none;strokeColor=#66B2FF;" parent="1" vertex="1">
                    <mxGeometry x="200" y="238" width="80" height="80" as="geometry"/>
                </mxCell>
                <mxCell id="6" value="" style="endArrow=classic;html=1;fontSize=24;exitX=0;exitY=0.25;exitDx=0;exitDy=0;entryX=1;entryY=0.25;entryDx=0;entryDy=0;" parent="1" source="3" target="2" edge="1">
                    <mxGeometry width="50" height="50" relative="1" as="geometry">
                        <mxPoint x="410" y="378" as="sourcePoint"/>
                        <mxPoint x="460" y="328" as="targetPoint"/>
                        <Array as="points"/>
                    </mxGeometry>
                </mxCell>
                <mxCell id="7" value="" style="endArrow=classic;html=1;fontSize=24;entryX=0;entryY=0.75;entryDx=0;entryDy=0;exitX=1;exitY=0.75;exitDx=0;exitDy=0;" parent="1" source="2" target="3" edge="1">
                    <mxGeometry width="50" height="50" relative="1" as="geometry">
                        <mxPoint x="410" y="378" as="sourcePoint"/>
                        <mxPoint x="470" y="348" as="targetPoint"/>
                        <Array as="points">
                            <mxPoint x="540" y="298"/>
                        </Array>
                    </mxGeometry>
                </mxCell>
                <mxCell id="8" value="" style="endArrow=classic;html=1;fontSize=24;exitX=1;exitY=0.75;exitDx=0;exitDy=0;entryX=0;entryY=0.75;entryDx=0;entryDy=0;" parent="1" source="4" target="2" edge="1">
                    <mxGeometry width="50" height="50" relative="1" as="geometry">
                        <mxPoint x="410" y="378" as="sourcePoint"/>
                        <mxPoint x="460" y="328" as="targetPoint"/>
                    </mxGeometry>
                </mxCell>
                <mxCell id="9" value="" style="endArrow=classic;html=1;fontSize=24;exitX=0;exitY=0.25;exitDx=0;exitDy=0;entryX=1;entryY=0.25;entryDx=0;entryDy=0;" parent="1" source="2" target="4" edge="1">
                    <mxGeometry width="50" height="50" relative="1" as="geometry">
                        <mxPoint x="410" y="378" as="sourcePoint"/>
                        <mxPoint x="460" y="328" as="targetPoint"/>
                    </mxGeometry>
                </mxCell>
                <mxCell id="10" value="" style="endArrow=classic;html=1;fontSize=24;exitX=1;exitY=0.75;exitDx=0;exitDy=0;entryX=0;entryY=0.75;entryDx=0;entryDy=0;" parent="1" source="3" target="4" edge="1">
                    <mxGeometry width="50" height="50" relative="1" as="geometry">
                        <mxPoint x="640" y="210" as="sourcePoint"/>
                        <mxPoint x="690" y="258" as="targetPoint"/>
                        <Array as="points">
                            <mxPoint x="680" y="298"/>
                            <mxPoint x="680" y="400"/>
                            <mxPoint x="560" y="400"/>
                            <mxPoint x="330" y="400"/>
                            <mxPoint x="160" y="400"/>
                            <mxPoint x="160" y="298"/>
                        </Array>
                    </mxGeometry>
                </mxCell>
                <mxCell id="11" value="" style="endArrow=classic;html=1;fontSize=24;exitX=0;exitY=0.25;exitDx=0;exitDy=0;entryX=1;entryY=0.25;entryDx=0;entryDy=0;strokeWidth=1;startArrow=none;startFill=0;" parent="1" source="4" target="3" edge="1">
                    <mxGeometry width="50" height="50" relative="1" as="geometry">
                        <mxPoint x="380" y="360" as="sourcePoint"/>
                        <mxPoint x="720" y="280" as="targetPoint"/>
                        <Array as="points">
                            <mxPoint x="120" y="258"/>
                            <mxPoint x="120" y="440"/>
                            <mxPoint x="720" y="440"/>
                            <mxPoint x="720" y="258"/>
                        </Array>
                    </mxGeometry>
                </mxCell>
                <mxCell id="14" value="&lt;font size=&quot;1&quot;&gt;&lt;b style=&quot;font-size: 40px&quot;&gt;Double Linked List&lt;/b&gt;&lt;/font&gt;" style="text;html=1;strokeColor=none;fillColor=none;align=center;verticalAlign=middle;whiteSpace=wrap;rounded=0;fontSize=24;" parent="1" vertex="1">
                    <mxGeometry x="238" y="80" width="374" height="100" as="geometry"/>
                </mxCell>
            </root>
        </mxGraphModel>
    </diagram>
</mxfile>